<svg width="383" height="377" viewBox="0 0 383 377" fill="none" xmlns="http://www.w3.org/2000/svg">
<path d="M13.6492 88.4176C1.4655 95.0717 -8.75875 121.256 11.5572 132.698C38.1638 147.676 175.749 218.48 182.452 222.133C189.156 225.787 195.348 224.643 214.412 215.111C232.979 205.83 366.042 140.354 377.632 133.857C384.227 130.169 384.944 117.411 377.632 111.93C377.632 111.93 206.545 200.992 199.336 202.927C190.374 205.334 182.148 194.79 182.855 186.378C183.719 175.928 187.81 175.447 211.338 162.119C233.608 149.527 357.62 92.8128 363.263 88.9136C369.647 84.4939 370.688 75.1634 359.334 69.845C343.153 62.2775 203.755 4.82135 198.01 2.2481C192.156 -0.369346 182.835 -1.87205 171.315 4.52671C157.761 12.0549 39.8334 74.1518 13.6492 88.4176Z" fill="#2B499E"/>
<path d="M189.735 248.774L73.5949 190.307C72.2898 189.65 70.8381 189.34 69.3786 189.405C67.9191 189.47 66.5009 189.909 65.2595 190.679C64.0181 191.449 62.9953 192.525 62.2888 193.804C61.5823 195.083 61.2159 196.521 61.2246 197.982L61.3327 221.814C61.3613 226.074 62.5582 230.244 64.7931 233.87C67.028 237.497 70.2151 240.44 74.0074 242.381L182.978 298.084C186.257 299.759 189.888 300.632 193.57 300.632C197.253 300.632 200.883 299.759 204.163 298.084L308.851 246.658C312.645 244.719 315.833 241.776 318.068 238.149C320.303 234.523 321.499 230.352 321.526 226.091L321.634 202.259C321.643 200.799 321.278 199.36 320.572 198.081C319.866 196.802 318.844 195.726 317.602 194.956C316.361 194.185 314.943 193.746 313.484 193.681C312.025 193.616 310.573 193.927 309.268 194.584L197.406 248.774C196.216 249.375 194.903 249.688 193.57 249.688C192.238 249.688 190.924 249.375 189.735 248.774Z" fill="#FBB322"/>
<path d="M29.5452 148.555V183.377C29.5452 185.528 27.0407 187.272 23.9469 187.272C20.858 187.272 18.3486 185.528 18.3486 183.377V148.555C18.3486 146.404 20.858 144.666 23.9469 144.666C27.0407 144.666 29.5452 146.404 29.5452 148.555Z" fill="#2B499E"/>
<path d="M35.723 184.556V201.503C35.723 206.105 30.3555 209.852 23.7309 209.852C17.1062 209.852 11.7338 206.114 11.7338 201.503V184.556C11.7338 179.95 17.1062 176.208 23.7309 176.208C30.3555 176.218 35.723 179.95 35.723 184.556Z" fill="#2B499E"/>
<path d="M57.9251 375.891V325.323H67.024V348.558H67.6371L87.2328 325.323H98.3427L78.9187 348.015L98.5143 375.891H87.5761L72.5912 354.212L67.024 360.829V375.891H57.9251ZM145.94 325.323V375.891H137.847L114.18 341.447H113.763V375.891H104.664V325.323H112.807L136.449 359.792H136.89V325.323H145.94ZM189.503 341.472C189.094 340.138 188.53 338.945 187.811 337.891C187.108 336.821 186.258 335.908 185.26 335.151C184.279 334.393 183.151 333.825 181.875 333.447C180.6 333.052 179.211 332.854 177.706 332.854C175.009 332.854 172.605 333.537 170.496 334.904C168.387 336.27 166.727 338.278 165.517 340.928C164.324 343.562 163.727 346.772 163.727 350.558C163.727 354.377 164.324 357.611 165.517 360.262C166.711 362.912 168.371 364.928 170.496 366.311C172.621 367.677 175.09 368.36 177.903 368.36C180.453 368.36 182.66 367.867 184.524 366.879C186.405 365.891 187.852 364.492 188.865 362.681C189.879 360.854 190.386 358.714 190.386 356.262L192.446 356.583H178.81V349.422H199.191V355.496C199.191 359.825 198.275 363.57 196.444 366.731C194.612 369.891 192.094 372.327 188.89 374.039C185.685 375.735 182.006 376.583 177.854 376.583C173.226 376.583 169.163 375.537 165.664 373.447C162.182 371.34 159.46 368.352 157.498 364.484C155.552 360.599 154.579 355.99 154.579 350.657C154.579 346.574 155.151 342.928 156.296 339.718C157.457 336.509 159.075 333.784 161.152 331.546C163.228 329.29 165.664 327.579 168.46 326.41C171.256 325.225 174.297 324.632 177.584 324.632C180.363 324.632 182.955 325.044 185.358 325.867C187.762 326.673 189.895 327.825 191.759 329.323C193.64 330.821 195.185 332.599 196.395 334.657C197.605 336.714 198.397 338.986 198.773 341.472H189.503ZM224.274 376.632C220.497 376.632 217.235 375.842 214.488 374.261C211.758 372.665 209.656 370.41 208.185 367.496C206.714 364.566 205.978 361.118 205.978 357.151C205.978 353.249 206.714 349.825 208.185 346.879C209.673 343.916 211.749 341.611 214.415 339.965C217.08 338.303 220.211 337.472 223.808 337.472C226.129 337.472 228.32 337.85 230.381 338.607C232.457 339.348 234.288 340.5 235.874 342.064C237.476 343.628 238.735 345.62 239.651 348.039C240.567 350.443 241.025 353.307 241.025 356.632V359.373H210.147V353.348H232.514C232.498 351.636 232.13 350.114 231.411 348.78C230.691 347.43 229.685 346.369 228.394 345.595C227.119 344.821 225.631 344.434 223.93 344.434C222.115 344.434 220.521 344.879 219.148 345.768C217.774 346.64 216.704 347.793 215.935 349.225C215.183 350.64 214.799 352.196 214.782 353.891V359.151C214.782 361.356 215.183 363.249 215.984 364.83C216.785 366.393 217.905 367.595 219.344 368.434C220.783 369.258 222.467 369.669 224.396 369.669C225.688 369.669 226.857 369.488 227.903 369.126C228.95 368.747 229.857 368.196 230.626 367.471C231.394 366.747 231.975 365.85 232.367 364.78L240.656 365.719C240.133 367.924 239.136 369.85 237.664 371.496C236.209 373.126 234.345 374.393 232.073 375.298C229.8 376.187 227.2 376.632 224.274 376.632ZM262.515 376.558C259.555 376.558 256.907 375.792 254.568 374.261C252.23 372.731 250.383 370.509 249.026 367.595C247.669 364.681 246.99 361.142 246.99 356.978C246.99 352.764 247.677 349.208 249.05 346.311C250.44 343.397 252.312 341.2 254.667 339.718C257.021 338.221 259.645 337.472 262.539 337.472C264.746 337.472 266.561 337.85 267.984 338.607C269.406 339.348 270.535 340.245 271.368 341.299C272.202 342.336 272.848 343.315 273.306 344.237H273.674V325.323H282.576V375.891H273.845V369.916H273.306C272.848 370.838 272.186 371.817 271.319 372.854C270.453 373.875 269.308 374.747 267.886 375.472C266.463 376.196 264.673 376.558 262.515 376.558ZM264.992 369.225C266.872 369.225 268.474 368.714 269.799 367.694C271.123 366.657 272.128 365.217 272.815 363.373C273.502 361.529 273.845 359.381 273.845 356.928C273.845 354.476 273.502 352.344 272.815 350.533C272.145 348.723 271.147 347.315 269.823 346.311C268.515 345.307 266.905 344.805 264.992 344.805C263.013 344.805 261.362 345.323 260.038 346.36C258.713 347.397 257.716 348.83 257.045 350.657C256.375 352.484 256.04 354.574 256.04 356.928C256.04 359.299 256.375 361.414 257.045 363.274C257.732 365.117 258.738 366.574 260.062 367.644C261.403 368.698 263.046 369.225 264.992 369.225ZM316.047 359.941V337.965H324.925V375.891H316.317V369.151H315.924C315.074 371.274 313.676 373.011 311.731 374.361C309.801 375.71 307.422 376.385 304.594 376.385C302.125 376.385 299.942 375.834 298.045 374.731C296.165 373.611 294.694 371.99 293.631 369.866C292.568 367.727 292.037 365.142 292.037 362.113V337.965H300.915V360.731C300.915 363.134 301.569 365.043 302.877 366.459C304.185 367.875 305.902 368.583 308.027 368.583C309.335 368.583 310.602 368.262 311.829 367.62C313.055 366.978 314.06 366.023 314.845 364.756C315.646 363.472 316.047 361.867 316.047 359.941Z" fill="#2B499E"/>
</svg>
